<svg id="car-parts" xmlns="http://www.w3.org/2000/svg" width="96" height="96" viewBox="0 0 96 96">
  <g id="Group_419" data-name="Group 419">
    <g id="Group_418" data-name="Group 418">
      <path id="Path_934" data-name="Path 934" d="M91.355,0H33.2a4.643,4.643,0,0,0-4.408,3.176L28.3,4.645H23.226A4.651,4.651,0,0,0,18.581,9.29V11.3a10.817,10.817,0,0,0-4.055,18.5A17.105,17.105,0,0,0,7.993,40.651a10.831,10.831,0,0,0,2.846,21.284v9.29h6.975a24.457,24.457,0,0,0,2.654,6.384L15.53,82.549l8.759,8.759,4.939-4.938a24.457,24.457,0,0,0,6.384,2.654V96H48V89.025a24.457,24.457,0,0,0,6.384-2.654l4.939,4.938,8.759-8.759L63.145,77.61A24.457,24.457,0,0,0,65.8,71.226h6.975V58.839H65.8a24.457,24.457,0,0,0-2.654-6.384L67.6,48H86.71V24.774h4.645A4.651,4.651,0,0,0,96,20.129V4.645A4.651,4.651,0,0,0,91.355,0ZM69.677,3.1a4.645,4.645,0,1,1-4.645,4.645A4.651,4.651,0,0,1,69.677,3.1Zm-10.839,0h4.685a7.662,7.662,0,0,0-1.589,4.645,7.751,7.751,0,0,0,7.742,7.742A7.662,7.662,0,0,0,74.323,13.9V24.774H58.839Zm-12.672,0a4.618,4.618,0,0,1-8.721,0ZM13.935,21.677a7.757,7.757,0,1,1,3.448,6.435l-.042-.085c-.015.008-.028.017-.043.025A7.739,7.739,0,0,1,13.935,21.677Zm3.385,9.917a10.942,10.942,0,0,0,1.26.466V43.528a10.862,10.862,0,0,0-7.394-3.245A14.042,14.042,0,0,1,17.32,31.595ZM10.839,58.839a7.742,7.742,0,1,1,5.992-12.626l-1.3,1.3,4.938,4.939a24.457,24.457,0,0,0-2.654,6.384H10.839Zm52.645-11.1-4.3,4.3.7,1.054a21.43,21.43,0,0,1,3.162,7.61l.252,1.24h6.376v6.194H63.3l-.252,1.24a21.431,21.431,0,0,1-3.162,7.61l-.7,1.054,4.517,4.517-4.38,4.38-4.517-4.517-1.054.7a21.43,21.43,0,0,1-7.61,3.162l-1.24.252V92.9H38.71V86.527l-1.24-.252a21.43,21.43,0,0,1-7.61-3.162l-1.054-.7-4.517,4.517-4.38-4.38,4.517-4.517-.7-1.054a21.43,21.43,0,0,1-3.162-7.61l-.252-1.24H13.935V61.935h6.376l.252-1.24a21.43,21.43,0,0,1,3.162-7.61l.7-1.054-4.517-4.517,4.38-4.38L28.8,47.65l1.054-.7a21.43,21.43,0,0,1,7.61-3.162l1.24-.252V37.161H44.9v6.376l1.24.252a21.43,21.43,0,0,1,7.61,3.162l1.054.7,4.517-4.517,4.159,4.161ZM83.613,44.9H65.472l-6.149-6.149-4.939,4.938A24.457,24.457,0,0,0,48,41.038V34.065H35.613V41.04a24.457,24.457,0,0,0-6.384,2.654L24.29,38.756l-2.612,2.611V32.516a10.839,10.839,0,0,0,0-21.677V9.29a1.549,1.549,0,0,1,1.548-1.548h7.31L31.73,4.156A1.548,1.548,0,0,1,33.2,3.1h1.022a7.742,7.742,0,0,0,15.171,0h6.35V20.169A7.662,7.662,0,0,0,51.1,18.581a7.742,7.742,0,1,0,7.586,9.29H83.613ZM55.742,26.323A4.645,4.645,0,1,1,51.1,21.677,4.651,4.651,0,0,1,55.742,26.323ZM92.9,20.129a1.549,1.549,0,0,1-1.548,1.548H86.71v-3.1h-3.1v6.194H77.419V7.742A7.662,7.662,0,0,0,75.831,3.1h7.782V15.484h3.1V3.1h4.645A1.549,1.549,0,0,1,92.9,4.645Z" fill="#255cb3"/>
      <path id="Path_935" data-name="Path 935" d="M36.645,240a4.645,4.645,0,1,0,4.645,4.645A4.651,4.651,0,0,0,36.645,240Zm0,6.194a1.548,1.548,0,1,1,1.548-1.548A1.549,1.549,0,0,1,36.645,246.194Z" transform="translate(-25.806 -193.548)" fill="#255cb3"/>
      <path id="Path_936" data-name="Path 936" d="M92.645,97.29A4.645,4.645,0,1,0,88,92.645,4.651,4.651,0,0,0,92.645,97.29Zm0-6.194A1.548,1.548,0,1,1,91.1,92.645,1.549,1.549,0,0,1,92.645,91.1Z" transform="translate(-70.968 -70.968)" fill="#255cb3"/>
      <path id="Path_937" data-name="Path 937" d="M151.484,256a15.484,15.484,0,1,0,8.27,28.576L158.1,281.96a12.4,12.4,0,1,1,2.177-1.748l2.2,2.18A15.484,15.484,0,0,0,151.484,256Z" transform="translate(-109.677 -206.452)" fill="#255cb3"/>
      <path id="Path_938" data-name="Path 938" d="M177.29,288a9.29,9.29,0,1,0,9.29,9.29A9.3,9.3,0,0,0,177.29,288Zm0,15.484a6.194,6.194,0,1,1,6.194-6.194A6.2,6.2,0,0,1,177.29,303.484Z" transform="translate(-135.484 -232.258)" fill="#255cb3"/>
    </g>
  </g>
</svg>
