<svg id="engineer" xmlns="http://www.w3.org/2000/svg" width="96" height="95.722" viewBox="0 0 96 95.722">
  <g id="Group_423" data-name="Group 423" transform="translate(0 0)">
    <g id="Group_422" data-name="Group 422">
      <path id="Path_950" data-name="Path 950" d="M143.079,308.442A16.949,16.949,0,0,0,131.7,295.123l-13.285-4.428V288.72h-3.088v2.7l-10.807,20.265L93.71,291.422v-2.7H90.622v3.474l12.351,23.159v2.7H84.446v3.088h18.527v4.632H80.02l1.232-9.858a7.081,7.081,0,0,0,3.194-5.946v-1.18H81.358v1.18a4.022,4.022,0,0,1-2.234,3.616l-.74.369-1.478,11.819H66.2l1.759-10.554-3.046-.506-2.358,14.148H146.48Zm-37.018,17.332v-4.632h18.527v-3.088H106.061v-2.7l11.556-21.667,6.971,2.322v13.962a7.086,7.086,0,0,0,3.194,5.947l1.232,9.858Zm26.066,0-1.478-11.819-.74-.369a4.024,4.024,0,0,1-2.234-3.616V297.037l3.045,1.014a13.871,13.871,0,0,1,9.313,10.9l2.8,16.824Z" transform="translate(-50.48 -233.139)" fill="#255cb3"/>
      <path id="Path_951" data-name="Path 951" d="M137.544,34.686a7.7,7.7,0,0,0,6.858,7.633,16.879,16.879,0,0,0,4.292,7.244l6.02,6.02a7.672,7.672,0,0,0,5.459,2.262h7.235a7.672,7.672,0,0,0,5.459-2.262l6.02-6.02a16.894,16.894,0,0,0,4.292-7.244,7.646,7.646,0,0,0,5.274-12.265h3.128V20.791h-4.853a23.253,23.253,0,0,0-16.762-19.2V.72H157.615v.871a23.257,23.257,0,0,0-16.762,19.2H136v9.263h3.128A7.64,7.64,0,0,0,137.544,34.686Zm3.088,0a4.625,4.625,0,0,1,3.088-4.348v7.215c0,.5.029,1.005.073,1.5A4.622,4.622,0,0,1,140.632,34.686Zm40.142,2.867a13.814,13.814,0,0,1-4.07,9.827l-6.02,6.02a4.6,4.6,0,0,1-3.276,1.357h-7.235A4.6,4.6,0,0,1,156.9,53.4l-6.02-6.02a13.81,13.81,0,0,1-4.07-9.825v-7.5h33.966Zm3.015,1.5c.043-.5.073-1,.073-1.5V30.338a4.6,4.6,0,0,1-.073,8.717ZM157.615,4.805V17.7H160.7V3.808h6.176V17.7h3.088V4.805a20.181,20.181,0,0,1,13.657,15.986H143.957A20.181,20.181,0,0,1,157.615,4.805ZM139.088,26.966V23.879h49.4v3.088Z" transform="translate(-109.754 -0.72)" fill="#255cb3"/>
      <rect id="Rectangle_176" data-name="Rectangle 176" width="3.475" height="3.475" transform="translate(63.248 13.708)" fill="#255cb3"/>
      <rect id="Rectangle_177" data-name="Rectangle 177" width="2.78" height="3.475" transform="translate(41.702 13.708)" fill="#255cb3"/>
      <path id="Path_952" data-name="Path 952" d="M27.745,299.883h8.706l.8-3.98a15.48,15.48,0,0,0,1.5-.616l3.377,2.249,6.156-6.156L46.03,288a15.316,15.316,0,0,0,.616-1.5l3.979-.8V277l-3.98-.8a15.244,15.244,0,0,0-1.056-2.348l-2.7,1.5a12.213,12.213,0,0,1,1.075,2.606l.259.9,3.313.664v3.645l-3.313.664-.259.9a12.181,12.181,0,0,1-1.075,2.606l-.459.823,1.871,2.807-2.577,2.577-2.807-1.871-.823.459a12.214,12.214,0,0,1-2.606,1.075l-.9.258-.664,3.316H30.276l-.664-3.313-.9-.258A12.182,12.182,0,0,1,26.1,292.15l-.823-.459-2.807,1.871L19,290.092l-2.183,2.183,5.26,5.262,3.377-2.249a15.322,15.322,0,0,0,1.5.616Z" transform="translate(-13.571 -221.144)" fill="#255cb3"/>
      <path id="Path_953" data-name="Path 953" d="M5.036,242.746l2.7-1.5a12.214,12.214,0,0,1-1.075-2.606l-.259-.9-3.313-.662v-3.645l3.313-.664.259-.9a12.181,12.181,0,0,1,1.075-2.606l.459-.823-1.871-2.807L8.9,223.044l2.807,1.871.823-.459a12.214,12.214,0,0,1,2.606-1.075l.9-.258.664-3.316h3.645l.664,3.313.9.258a12.181,12.181,0,0,1,2.606,1.075l.823.459,2.807-1.871,3.472,3.471,2.183-2.183-5.26-5.262-3.377,2.249a15.322,15.322,0,0,0-1.5-.616l-.8-3.98H14.173l-.8,3.98a15.481,15.481,0,0,0-1.5.616L8.5,219.067l-6.156,6.156L4.595,228.6a15.321,15.321,0,0,0-.616,1.5l-3.979.8V239.6l3.98.8A15.292,15.292,0,0,0,5.036,242.746Z" transform="translate(0 -175.035)" fill="#255cb3"/>
      <path id="Path_954" data-name="Path 954" d="M63.72,272.72a7.72,7.72,0,1,0,7.72,7.72A7.728,7.728,0,0,0,63.72,272.72Zm0,12.351a4.632,4.632,0,1,1,4.632-4.632A4.637,4.637,0,0,1,63.72,285.071Z" transform="translate(-45.193 -220.227)" fill="#255cb3"/>
    </g>
  </g>
</svg>
