<svg id="space" xmlns="http://www.w3.org/2000/svg" width="96.026" height="96" viewBox="0 0 96.026 96">
  <g id="Group_425" data-name="Group 425" transform="translate(0 0)">
    <g id="Group_424" data-name="Group 424">
      <path id="Path_955" data-name="Path 955" d="M48.026.068A47.983,47.983,0,0,0,5.19,69.705C-.118,79.988-1.976,88.961,2.578,93.516A9.712,9.712,0,0,0,9.73,96.059c3.327,0,7.414-1.01,12.156-3.03l-1.212-2.849c-7.711,3.284-13.358,3.693-15.905,1.147C-.854,85.7,8.064,66.21,25.512,45.984L23.167,43.96a147.651,147.651,0,0,0-16.153,22.4A44.909,44.909,0,1,1,73.255,85.192a10.821,10.821,0,0,0-20.584,4.682,10.688,10.688,0,0,0,.387,2.807,44.811,44.811,0,0,1-42.192-19.4L8.305,75.025A48,48,0,1,0,48.026.068Zm8.121,92.154a7.64,7.64,0,0,1-.379-2.347A7.729,7.729,0,0,1,70.615,86.85,44.59,44.59,0,0,1,56.147,92.222Z" transform="translate(0 -0.068)" fill="#255cb3"/>
    </g>
  </g>
  <g id="Group_427" data-name="Group 427" transform="translate(13.321 7.742)">
    <g id="Group_426" data-name="Group 426">
      <path id="Path_956" data-name="Path 956" d="M110.629,40.068l-3.1,3.1h-4.645L90.5,55.552H75.017l-6.194,6.194,5.74,5.74L76.752,65.3l-3.55-3.55,3.1-3.1H87.4L76.565,69.487l11.48,11.48L98.883,70.128V81.233l-3.1,3.1-3.55-3.55-2.189,2.189,5.74,5.74,6.194-6.194V67.032l12.387-12.387V50l3.1-3.1V40.068ZM88.045,76.588l-7.1-7.1L97.335,53.1l7.1,7.1ZM111.27,53.362l-4.645,4.645-7.1-7.1,4.645-4.645h3.363L111.27,50Zm3.1-7.742-1.548,1.548-2.456-2.456,1.548-1.548h2.456Z" transform="translate(-68.823 -40.068)" fill="#255cb3"/>
    </g>
  </g>
  <g id="Group_429" data-name="Group 429" transform="translate(69.704 32.516)">
    <g id="Group_428" data-name="Group 428">
      <path id="Path_957" data-name="Path 957" d="M369.425,168.068a9.29,9.29,0,1,0,9.29,9.29A9.3,9.3,0,0,0,369.425,168.068Zm0,15.484a6.194,6.194,0,1,1,6.194-6.194A6.2,6.2,0,0,1,369.425,183.552Z" transform="translate(-360.135 -168.068)" fill="#255cb3"/>
    </g>
  </g>
  <g id="Group_431" data-name="Group 431" transform="translate(21.704 61.935)">
    <g id="Group_430" data-name="Group 430">
      <path id="Path_958" data-name="Path 958" d="M116.78,320.068a4.645,4.645,0,1,0,4.645,4.645A4.651,4.651,0,0,0,116.78,320.068Zm0,6.194a1.548,1.548,0,1,1,1.548-1.548A1.55,1.55,0,0,1,116.78,326.262Z" transform="translate(-112.135 -320.068)" fill="#255cb3"/>
    </g>
  </g>
  <g id="Group_433" data-name="Group 433" transform="translate(51.123 44.903)">
    <g id="Group_432" data-name="Group 432">
      <path id="Path_959" data-name="Path 959" d="M268.78,232.068a4.645,4.645,0,1,0,4.645,4.645A4.651,4.651,0,0,0,268.78,232.068Zm0,6.194a1.548,1.548,0,1,1,1.548-1.548A1.55,1.55,0,0,1,268.78,238.262Z" transform="translate(-264.135 -232.068)" fill="#255cb3"/>
    </g>
  </g>
  <g id="Group_435" data-name="Group 435" transform="translate(38.735 68.129)">
    <g id="Group_434" data-name="Group 434">
      <rect id="Rectangle_178" data-name="Rectangle 178" width="3.097" height="3.097" fill="#255cb3"/>
    </g>
  </g>
  <g id="Group_437" data-name="Group 437" transform="translate(69.703 61.936)">
    <g id="Group_436" data-name="Group 436">
      <rect id="Rectangle_179" data-name="Rectangle 179" width="3.097" height="3.097" fill="#255cb3"/>
    </g>
  </g>
  <g id="Group_439" data-name="Group 439" transform="translate(44.928 85.162)">
    <g id="Group_438" data-name="Group 438">
      <rect id="Rectangle_180" data-name="Rectangle 180" width="3.097" height="3.097" fill="#255cb3"/>
    </g>
  </g>
  <g id="Group_441" data-name="Group 441" transform="translate(66.606 21.678)">
    <g id="Group_440" data-name="Group 440">
      <rect id="Rectangle_181" data-name="Rectangle 181" width="3.097" height="3.097" fill="#255cb3"/>
    </g>
  </g>
  <g id="Group_443" data-name="Group 443" transform="translate(55.767 60.387)">
    <g id="Group_442" data-name="Group 442">
      <rect id="Rectangle_182" data-name="Rectangle 182" width="3.097" height="3.097" fill="#255cb3"/>
    </g>
  </g>
  <g id="Group_445" data-name="Group 445" transform="translate(27.896 10.839)">
    <g id="Group_444" data-name="Group 444">
      <rect id="Rectangle_183" data-name="Rectangle 183" width="3.097" height="3.097" fill="#255cb3"/>
    </g>
  </g>
</svg>
