<svg id="LOGO_OK" xmlns="http://www.w3.org/2000/svg" width="192.009" height="87.918" viewBox="0 0 192.009 87.918">
  <path id="Path_972" data-name="Path 972" d="M184.045,36.458c9.28,0,14.649,3.739,14.649,11.818a10.963,10.963,0,0,1-6.628,10.483c2.519.935,8.882,2.8,8.882,13.354S189.68,85.4,185.106,85.4s-24.989.067-24.989.067V36.458ZM188.5,50.817v-.612a5.714,5.714,0,0,0-5.734-5.448H170.978V56.266h11.791A5.714,5.714,0,0,0,188.5,50.817Zm1.774,20.037v-.736a6.557,6.557,0,0,0-6.514-6.562H170.978V77.044h13.154A6.167,6.167,0,0,0,190.276,70.855Z" transform="translate(-91.72 -29.505)" fill="#214799"/>
  <path id="Path_973" data-name="Path 973" d="M286.9,36.377H244.016V85.363H254.7V65.157h20.873s-.813-2.949-.055-8.41H254.7V45.279h24.179S281.532,39.108,286.9,36.377Z" transform="translate(-131.485 -29.467)" fill="#214799"/>
  <path id="Path_974" data-name="Path 974" d="M343.533,51.852h10.409c-.542-8.465-8.023-17.639-21.468-17.639s-23.529,10.7-23.529,25.5,9.379,25.667,23.475,25.667,21.251-9.5,21.848-19.933h-10.3c-.271,4.314-3.632,11.14-10.734,11.14S319.57,71.785,319.57,59.88s6.777-16.656,13.12-16.656S342.828,47.265,343.533,51.852Z" transform="translate(-162.258 -28.449)" fill="#214799"/>
  <path id="Path_975" data-name="Path 975" d="M61.169,42.723V23.336l-31.075,31.3H49.34Z" transform="translate(-30.094 -23.336)" fill="#2e62aa"/>
  <path id="Path_976" data-name="Path 976" d="M101,54.639h19.246l-31.075-31.3V42.723Z" transform="translate(-58.093 -23.336)" fill="#214799"/>
  <path id="Path_977" data-name="Path 977" d="M101,82.41,89.168,94.326v19.387l31.075-31.3Z" transform="translate(-58.093 -51.107)" fill="#2e62aa"/>
  <path id="Path_978" data-name="Path 978" d="M49.34,82.41H30.094l31.075,31.3V94.326Z" transform="translate(-30.094 -51.107)" fill="#214799"/>
  <g id="Group_451" data-name="Group 451" transform="translate(68.723 72.001)">
    <path id="Path_979" data-name="Path 979" d="M162.233,171.21a6.458,6.458,0,0,0,4.279,1.561q2.935-.043,2.977-2.182.021-1.752-1.963-2.107-.909-.129-1.994-.29a4.86,4.86,0,0,1-2.955-1.494,4.257,4.257,0,0,1-1.043-2.9,4.378,4.378,0,0,1,1.31-3.311,4.991,4.991,0,0,1,3.6-1.269,8.241,8.241,0,0,1,4.881,1.618l-1.271,1.949a6.721,6.721,0,0,0-3.731-1.206,2.77,2.77,0,0,0-1.757.548,2.072,2.072,0,0,0-.754,1.7,1.763,1.763,0,0,0,.507,1.225,2.854,2.854,0,0,0,1.622.774q.619.107,1.694.247a4.63,4.63,0,0,1,3.13,1.58,4.558,4.558,0,0,1,1,2.924q-.114,4.494-5.284,4.558A8.358,8.358,0,0,1,160.737,173Z" transform="translate(-160.737 -159.215)" fill="#214799"/>
    <path id="Path_980" data-name="Path 980" d="M194.516,159.458h9.619v2.233H196.8v4.481h6.265v2.1H196.8v4.609h7.339v2.233h-9.619Z" transform="translate(-176.747 -159.329)" fill="#214799"/>
    <path id="Path_981" data-name="Path 981" d="M234.771,170.629a5.919,5.919,0,0,1-1.891,3.346,5.249,5.249,0,0,1-3.4,1.158,5.41,5.41,0,0,1-4.718-2.814q-.165-.354-.3-.677a4.524,4.524,0,0,1-.207-.838,42.937,42.937,0,0,1,0-7.282,4.438,4.438,0,0,1,.506-1.493,5.333,5.333,0,0,1,1.756-1.933,5.4,5.4,0,0,1,6.517.46,5.965,5.965,0,0,1,1.735,3.292H232.35a3.466,3.466,0,0,0-1.014-1.615,2.916,2.916,0,0,0-1.862-.657,3.064,3.064,0,0,0-1.386.334,2.909,2.909,0,0,0-.952.807,2.645,2.645,0,0,0-.59,1.3,19.477,19.477,0,0,0-.165,3.154,19.038,19.038,0,0,0,.165,3.132,2.667,2.667,0,0,0,.59,1.324,2.7,2.7,0,0,0,.953.786,2.6,2.6,0,0,0,1.386.355,3.073,3.073,0,0,0,2.877-2.142Z" transform="translate(-190.77 -159.215)" fill="#214799"/>
    <path id="Path_982" data-name="Path 982" d="M255.106,159.458h2.28v10.1a3.3,3.3,0,0,0,.89,2.44,2.891,2.891,0,0,0,2.182.882,2.961,2.961,0,0,0,2.2-.882,3.346,3.346,0,0,0,.869-2.44v-10.1h2.279v10.354a5.332,5.332,0,0,1-1.539,3.92,5.518,5.518,0,0,1-7.593,0,5.164,5.164,0,0,1-1.571-3.915Z" transform="translate(-205.464 -159.329)" fill="#214799"/>
    <path id="Path_983" data-name="Path 983" d="M289.254,159.458h5.883a4.519,4.519,0,0,1,3.071,1.031,4.236,4.236,0,0,1,1.493,3.34,4.351,4.351,0,0,1-2.907,4.339l3.485,6.949H297.57l-3.116-6.692h-2.92v6.692h-2.28Zm2.28,6.864h3.458a2.448,2.448,0,0,0,1.926-.775,2.48,2.48,0,0,0,.631-1.723,2.12,2.12,0,0,0-.755-1.777,2.552,2.552,0,0,0-1.678-.485h-3.582Z" transform="translate(-221.649 -159.329)" fill="#214799"/>
    <path id="Path_984" data-name="Path 984" d="M322.043,159.458h2.28v15.66h-2.28Z" transform="translate(-237.19 -159.329)" fill="#214799"/>
    <path id="Path_985" data-name="Path 985" d="M341.363,161.562h-4.127v-2.1h10.537v2.1h-4.13v13.556h-2.28Z" transform="translate(-244.391 -159.329)" fill="#214799"/>
    <path id="Path_986" data-name="Path 986" d="M369.349,168.676l-4.532-9.218h2.417l3.192,6.948,3.192-6.948h2.418l-4.536,9.216v6.444h-2.151Z" transform="translate(-257.463 -159.329)" fill="#214799"/>
  </g>
</svg>
