<svg xmlns="http://www.w3.org/2000/svg" width="287.999" height="86.273" viewBox="0 0 287.999 86.273">
  <g id="Group_235" data-name="Group 235" transform="translate(20812.001 2803)" opacity="0.695" style="mix-blend-mode: lighten;isolation: isolate">
    <path id="Path_786" data-name="Path 786" d="M394.352,368.482v0l-98.043-.017c-.779,0-1.548,0-2.305.014v3.74a39.318,39.318,0,0,1,0,78.625v3.841c.95.017,1.954.025,3.046.025l96.562.017c.247,0,.493.005.741.005a43.123,43.123,0,1,0,0-86.246" transform="translate(-20961.479 -3171.462)" fill="#fff"/>
    <path id="Path_817" data-name="Path 817" d="M273.146,368.49v0l-97.434-.016a64.216,64.216,0,0,0-11.716.778,43.21,43.21,0,0,0-4.1,83.686c.105.032.215.059.321.091.389.113.775.231,1.168.333,3.624.988,7.516,1.358,15.066,1.358l95.951.014c.248,0,.493.006.741.006a43.123,43.123,0,1,0,0-86.246" transform="translate(-20941.311 -3171.463)" fill="#fff"/>
    <g id="Group_232" data-name="Group 232">
      <path id="Path_787" data-name="Path 787" d="M396.776,451.431c-.227,0-.459,0-.685-.006h-.055l-82.125-.014a43.239,43.239,0,0,0-.114-78.577l79.147.012v0h3.833a39.29,39.29,0,1,1,0,78.581" transform="translate(-20963.902 -3171.997)"/>
      <path id="Path_818" data-name="Path 818" d="M281.723,451.439c-.227,0-.458,0-.685-.006h-.055l-81.516-.014a43.239,43.239,0,0,0-.111-78.576l78.536.012v0h3.832a39.29,39.29,0,1,1,0,78.581" transform="translate(-20949.889 -3171.998)"/>
      <path id="Path_819" data-name="Path 819" d="M212.619,412.057a39.331,39.331,0,1,1-39.331-39.331,39.33,39.33,0,0,1,39.331,39.331" transform="translate(-20941.879 -3171.984)"/>
    </g>
    <g id="Group_234" data-name="Group 234">
      <path id="Path_820" data-name="Path 820" d="M192.352,395.017a1.4,1.4,0,1,0-1.4-1.4,1.406,1.406,0,0,0,1.4,1.4" transform="translate(-20948.859 -3174.371)" fill="#fff"/>
      <path id="Path_821" data-name="Path 821" d="M186.72,384.224v7.227a2.2,2.2,0,0,0,2.532,2.491,2.407,2.407,0,0,0,.422-.039v-1.747c-.615,0-.807-.19-.807-.724v-7.209Z" transform="translate(-20948.34 -3173.392)" fill="#fff"/>
      <path id="Path_822" data-name="Path 822" d="M187.747,382.194a1.4,1.4,0,1,0-1.4-1.4,1.406,1.406,0,0,0,1.4,1.4" transform="translate(-20948.295 -3172.801)" fill="#fff"/>
      <path id="Path_823" data-name="Path 823" d="M181.006,389.807c1.284.116,1.593.479,1.593,1.187,0,.844-.749,1.191-2.282,1.191a8.352,8.352,0,0,1-2.857-.538v1.84a9.008,9.008,0,0,0,3.164.518c3.068,0,4.084-1.438,4.084-3.086,0-1.783-.75-2.646-3.623-2.9-1.248-.114-1.591-.4-1.591-1.073,0-.863.708-1.189,1.84-1.189a8.014,8.014,0,0,1,2.932.537V384.44a7.308,7.308,0,0,0-2.97-.478c-2.82,0-3.892,1.4-3.892,3.048s.708,2.548,3.6,2.8" transform="translate(-20947.199 -3173.36)" fill="#fff"/>
      <path id="Path_824" data-name="Path 824" d="M175.883,452.316s21.354-36.128,21.508-36.479h-43.1c.15.372,21.595,36.479,21.595,36.479" transform="translate(-20944.369 -3177.263)" fill="#fff"/>
      <path id="Path_825" data-name="Path 825" d="M185.863,398.829a11.859,11.859,0,0,0-9.955,5.3,11.847,11.847,0,0,0-9.95-5.3,12.088,12.088,0,0,0-12.184,11.4h44.075a11.978,11.978,0,0,0-11.986-11.4" transform="translate(-20944.307 -3175.18)" fill="#fff"/>
      <path id="Path_826" data-name="Path 826" d="M168.556,392.372a5.051,5.051,0,0,0,3.107,1c2.8,0,3.833-1.879,3.833-5.022,0-3.125-1.036-5.022-3.833-5.022a4.88,4.88,0,0,0-2.57.747v-5.31h-2.146v14.378h1.265Zm.536-6.671a4.1,4.1,0,0,1,2.069-.556c1.879,0,2.168,1.437,2.168,3.2,0,1.783-.289,3.2-2.168,3.2a4.085,4.085,0,0,1-2.069-.556Z" transform="translate(-20945.92 -3172.723)" fill="#fff"/>
    </g>
    <g id="Group_233" data-name="Group 233">
      <rect id="Rectangle_42" data-name="Rectangle 42" width="1.461" height="9.796" transform="translate(-20619.635 -2789.713)" fill="#fff"/>
      <path id="Path_788" data-name="Path 788" d="M352.388,392.007a15.077,15.077,0,0,0,2.312.213,3.082,3.082,0,0,0,2.082-.548,1.323,1.323,0,0,0,.412-1c0-.957-.592-1.278-2.282-1.779s-2.768-1.187-2.768-2.845a2.386,2.386,0,0,1,.943-1.948,3.86,3.86,0,0,1,2.419-.67,14.582,14.582,0,0,1,2.707.3l-.181,1.217a13.663,13.663,0,0,0-2.267-.212,3.091,3.091,0,0,0-1.69.348,1.07,1.07,0,0,0-.456.914c0,1,.777,1.294,2.39,1.78,1.58.489,2.66,1.158,2.66,2.877a2.639,2.639,0,0,1-.988,2.159,4.276,4.276,0,0,1-2.692.717,15.981,15.981,0,0,1-2.784-.29Z" transform="translate(-20968.598 -3173.294)" fill="#fff"/>
      <path id="Path_789" data-name="Path 789" d="M360.831,388.477c0-3.317,1.262-5.05,4.228-5.05s4.231,1.733,4.231,5.05-1.264,5.05-4.231,5.05-4.228-1.734-4.228-5.05m6.968,0c0-2.587-.775-3.741-2.74-3.741s-2.737,1.154-2.737,3.741.776,3.742,2.737,3.742,2.74-1.155,2.74-3.742" transform="translate(-20969.662 -3173.294)" fill="#fff"/>
      <path id="Path_790" data-name="Path 790" d="M349.543,410.737v-8.321l-2.039.775-.44-.988,2.615-1.262H351v9.8Z" transform="translate(-20967.975 -3175.439)" fill="#fff"/>
      <path id="Path_791" data-name="Path 791" d="M358.108,410.737v-1.856h-4.594V407.74c1.1-2.053,2.48-4.441,3.88-6.8h1.583c-1.416,2.311-2.726,4.547-3.9,6.663h3.028l.136-2.221h1.325V407.6h1.644v1.277h-1.644v1.856Z" transform="translate(-20968.766 -3175.439)" fill="#fff"/>
      <path id="Path_792" data-name="Path 792" d="M363.327,405.817c0-3.285.685-5.05,3.546-5.05,2.843,0,3.529,1.766,3.529,5.05s-.685,5.05-3.529,5.05c-2.861,0-3.546-1.779-3.546-5.05m5.614,0c0-2.327-.138-3.772-2.067-3.772-1.964,0-2.083,1.444-2.083,3.772s.119,3.788,2.083,3.788c1.93,0,2.067-1.475,2.067-3.788" transform="translate(-20969.967 -3175.417)" fill="#fff"/>
      <path id="Path_793" data-name="Path 793" d="M373.057,405.817c0-3.285.684-5.05,3.544-5.05,2.845,0,3.529,1.766,3.529,5.05s-.684,5.05-3.529,5.05c-2.861,0-3.544-1.779-3.544-5.05m5.612,0c0-2.327-.136-3.772-2.067-3.772-1.964,0-2.086,1.444-2.086,3.772s.122,3.788,2.086,3.788c1.931,0,2.067-1.475,2.067-3.788" transform="translate(-20971.158 -3175.417)" fill="#fff"/>
      <path id="Path_794" data-name="Path 794" d="M384.153,410.737v-8.321l-2.039.775-.44-.988,2.615-1.262h1.325v9.8Z" transform="translate(-20972.213 -3175.439)" fill="#fff"/>
      <path id="Path_795" data-name="Path 795" d="M348.118,425.339v-7.057h4.2v.931h-3.147v2.027h2.577v.921h-2.577v2.246h3.147v.931Z" transform="translate(-20968.105 -3177.562)" fill="#fff"/>
      <path id="Path_796" data-name="Path 796" d="M357.277,425.6v-3.322c0-.646-.3-.954-.854-.954a2.828,2.828,0,0,0-1.229.319V425.6h-1V420.54h.734l.088.458a2.57,2.57,0,0,1,1.534-.568,1.581,1.581,0,0,1,1.721,1.763V425.6Z" transform="translate(-20968.85 -3177.825)" fill="#fff"/>
      <path id="Path_797" data-name="Path 797" d="M361.372,425.618a34.451,34.451,0,0,1-1.557-5.063h1.031a33.852,33.852,0,0,0,1.193,4.273h.09a33.987,33.987,0,0,0,1.193-4.273h1.03a34.333,34.333,0,0,1-1.556,5.063Z" transform="translate(-20969.537 -3177.841)" fill="#fff"/>
      <path id="Path_798" data-name="Path 798" d="M366.544,418.244a.56.56,0,0,1,.558.558.551.551,0,0,1-.558.548A.542.542,0,0,1,366,418.8a.551.551,0,0,1,.548-.558m-.493,2.027h1v5.062h-1Z" transform="translate(-20970.293 -3177.558)" fill="#fff"/>
      <path id="Path_799" data-name="Path 799" d="M368.854,425.6v-5.063h.744l.133.625h.045a1.611,1.611,0,0,1,1.5-.725,3.376,3.376,0,0,1,.438.023l-.067.909a3.672,3.672,0,0,0-.6-.045,1.817,1.817,0,0,0-1.2.385v3.89Z" transform="translate(-20970.645 -3177.827)" fill="#fff"/>
      <path id="Path_800" data-name="Path 800" d="M374.955,425.712a2.187,2.187,0,0,1-1.6-.56,3.582,3.582,0,0,1,0-4.163,2.566,2.566,0,0,1,3.2,0,3.578,3.578,0,0,1,0,4.163,2.185,2.185,0,0,1-1.6.56m1.26-2.641a2.169,2.169,0,0,0-.362-1.415,1.327,1.327,0,0,0-1.8,0,2.17,2.17,0,0,0-.361,1.415,2.132,2.132,0,0,0,.361,1.414,1.135,1.135,0,0,0,.9.349,1.181,1.181,0,0,0,.9-.349,2.131,2.131,0,0,0,.362-1.414" transform="translate(-20971.113 -3177.825)" fill="#fff"/>
      <path id="Path_801" data-name="Path 801" d="M382.221,425.6v-3.322c0-.646-.3-.954-.854-.954a2.827,2.827,0,0,0-1.229.319V425.6h-1V420.54h.734l.088.458a2.575,2.575,0,0,1,1.534-.568,1.58,1.58,0,0,1,1.72,1.763V425.6Z" transform="translate(-20971.904 -3177.825)" fill="#fff"/>
      <path id="Path_802" data-name="Path 802" d="M391.308,425.6v-3.354c0-.635-.306-.921-.866-.921a2.423,2.423,0,0,0-1.173.351,3.778,3.778,0,0,1,.055.625v3.3h-1v-3.354c0-.635-.3-.921-.855-.921a2.348,2.348,0,0,0-1.13.308V425.6h-1V420.54h.734l.087.458a2.527,2.527,0,0,1,1.524-.568,1.46,1.46,0,0,1,1.315.645,2.518,2.518,0,0,1,1.577-.645c1.13,0,1.72.623,1.72,1.862v3.31Z" transform="translate(-20972.664 -3177.825)" fill="#fff"/>
      <path id="Path_803" data-name="Path 803" d="M398.453,425.306a4.334,4.334,0,0,1-1.753.405c-1.491,0-2.29-.931-2.29-2.607,0-1.392.637-2.675,2.182-2.675,1.227,0,1.939.877,1.939,2.236a3.95,3.95,0,0,1-.077.767h-3.035a1.66,1.66,0,0,0,.341,1.042,1.318,1.318,0,0,0,1.006.351,3.871,3.871,0,0,0,1.459-.319Zm-.864-2.662c0-.756-.221-1.359-1.03-1.359-.735,0-1.086.657-1.129,1.359Z" transform="translate(-20973.773 -3177.825)" fill="#fff"/>
      <path id="Path_804" data-name="Path 804" d="M403.457,425.6v-3.322c0-.646-.3-.954-.855-.954a2.825,2.825,0,0,0-1.227.319V425.6h-1V420.54h.736l.085.458a2.578,2.578,0,0,1,1.537-.568,1.58,1.58,0,0,1,1.72,1.763V425.6Z" transform="translate(-20974.504 -3177.825)" fill="#fff"/>
      <path id="Path_805" data-name="Path 805" d="M409.173,425.2a2.739,2.739,0,0,1-1.215.306,1.2,1.2,0,0,1-1.294-1.379v-2.949h-.755v-.734l.789-.045.075-1.489h.888v1.447h1.413v.821h-1.413v2.794c0,.373.065.635.448.635a1.733,1.733,0,0,0,.734-.185Z" transform="translate(-20975.182 -3177.639)" fill="#fff"/>
      <path id="Path_806" data-name="Path 806" d="M413.669,425.6l-.11-.426a2.237,2.237,0,0,1-1.48.535,1.553,1.553,0,0,1-1.676-1.588,1.493,1.493,0,0,1,.537-1.183,2.153,2.153,0,0,1,1.36-.383c.348,0,.755.02,1.106.042v-.426a.849.849,0,0,0-.209-.637,1.3,1.3,0,0,0-.9-.219,7.149,7.149,0,0,0-1.427.164l-.152-.832a6.307,6.307,0,0,1,1.666-.219,2.3,2.3,0,0,1,1.522.393,1.576,1.576,0,0,1,.495,1.294V425.6Zm-.263-2.268c-.252-.022-.592-.033-.9-.033-.734,0-1.086.264-1.086.822a.773.773,0,0,0,.867.8,1.885,1.885,0,0,0,1.118-.371Z" transform="translate(-20975.732 -3177.825)" fill="#fff"/>
      <rect id="Rectangle_43" data-name="Rectangle 43" width="0.998" height="7.057" transform="translate(-20559.916 -2759.281)" fill="#fff"/>
      <path id="Path_807" data-name="Path 807" d="M353.917,439.21c-.055-1.885-.142-3.824-.23-5.687h-.054l-1.6,4.493H350.9l-1.6-4.493h-.055c-.087,1.863-.175,3.8-.229,5.687h-1.064c.077-2.345.2-4.7.329-7.056h1.534l1.623,4.679h.054l1.621-4.679h1.535c.132,2.355.251,4.712.328,7.056Z" transform="translate(-20968.084 -3179.261)" fill="#fff"/>
      <path id="Path_808" data-name="Path 808" d="M360.5,439.473l-.109-.428a2.224,2.224,0,0,1-1.481.538,1.554,1.554,0,0,1-1.676-1.588,1.488,1.488,0,0,1,.535-1.183,2.15,2.15,0,0,1,1.359-.383c.351,0,.757.02,1.108.042v-.426a.849.849,0,0,0-.209-.637,1.3,1.3,0,0,0-.9-.219,7.155,7.155,0,0,0-1.424.164l-.152-.832a6.31,6.31,0,0,1,1.666-.219,2.306,2.306,0,0,1,1.522.394,1.575,1.575,0,0,1,.493,1.294v3.484Zm-.263-2.268c-.252-.022-.592-.032-.9-.032-.734,0-1.086.264-1.086.822a.773.773,0,0,0,.866.8,1.879,1.879,0,0,0,1.118-.372Z" transform="translate(-20969.221 -3179.524)" fill="#fff"/>
      <path id="Path_809" data-name="Path 809" d="M366.478,439.473v-3.322c0-.645-.3-.951-.856-.951a2.814,2.814,0,0,0-1.228.317v3.956h-1v-5.062h.734l.087.46a2.558,2.558,0,0,1,1.534-.57,1.581,1.581,0,0,1,1.721,1.763v3.408Z" transform="translate(-20969.977 -3179.524)" fill="#fff"/>
      <path id="Path_810" data-name="Path 810" d="M372.533,439.473l-.11-.428a2.223,2.223,0,0,1-1.481.538,1.554,1.554,0,0,1-1.676-1.588,1.486,1.486,0,0,1,.536-1.183,2.147,2.147,0,0,1,1.359-.383c.351,0,.756.02,1.107.042v-.426a.849.849,0,0,0-.209-.637,1.306,1.306,0,0,0-.9-.219,7.139,7.139,0,0,0-1.424.164l-.154-.832a6.339,6.339,0,0,1,1.667-.219,2.31,2.31,0,0,1,1.523.394,1.575,1.575,0,0,1,.492,1.294v3.484Zm-.264-2.268c-.254-.022-.592-.032-.9-.032-.734,0-1.086.264-1.086.822a.773.773,0,0,0,.866.8,1.875,1.875,0,0,0,1.118-.372Z" transform="translate(-20970.693 -3179.524)" fill="#fff"/>
      <path id="Path_811" data-name="Path 811" d="M378.326,439.189a2.158,2.158,0,0,1-1.206.394c-1.437,0-1.962-.931-1.962-2.6,0-1.895.592-2.684,1.995-2.684a7.454,7.454,0,0,1,2.171.351v5.282a1.583,1.583,0,0,1-.461,1.2,2.294,2.294,0,0,1-1.556.439,9.27,9.27,0,0,1-1.633-.175l.132-.854a9.564,9.564,0,0,0,1.359.13,1.432,1.432,0,0,0,.964-.23.884.884,0,0,0,.2-.625Zm0-3.9a6.431,6.431,0,0,0-1.074-.1c-.866,0-1.086.592-1.086,1.809,0,1.138.23,1.764,1.074,1.764a2.449,2.449,0,0,0,1.086-.242Z" transform="translate(-20971.416 -3179.524)" fill="#fff"/>
      <path id="Path_812" data-name="Path 812" d="M385.121,439.177a4.319,4.319,0,0,1-1.753.406c-1.491,0-2.29-.931-2.29-2.607,0-1.392.635-2.675,2.179-2.675,1.229,0,1.942.877,1.942,2.236a4.1,4.1,0,0,1-.077.767h-3.035a1.645,1.645,0,0,0,.339,1.041,1.322,1.322,0,0,0,1.008.351,3.807,3.807,0,0,0,1.458-.319Zm-.866-2.662c0-.757-.219-1.359-1.028-1.359-.735,0-1.086.657-1.13,1.359Z" transform="translate(-20972.141 -3179.524)" fill="#fff"/>
      <path id="Path_813" data-name="Path 813" d="M393.006,439.473v-3.354c0-.634-.306-.919-.866-.919a2.431,2.431,0,0,0-1.173.349,3.775,3.775,0,0,1,.055.625v3.3h-1v-3.354c0-.634-.3-.919-.854-.919a2.345,2.345,0,0,0-1.13.306v3.967h-1v-5.062h.734l.087.46a2.516,2.516,0,0,1,1.524-.57,1.457,1.457,0,0,1,1.313.645,2.524,2.524,0,0,1,1.58-.645c1.128,0,1.718.625,1.718,1.862v3.309Z" transform="translate(-20972.871 -3179.524)" fill="#fff"/>
      <path id="Path_814" data-name="Path 814" d="M400.153,439.177a4.335,4.335,0,0,1-1.755.406c-1.489,0-2.289-.931-2.289-2.607,0-1.392.634-2.675,2.179-2.675,1.229,0,1.942.877,1.942,2.236a4.171,4.171,0,0,1-.077.767h-3.035a1.645,1.645,0,0,0,.339,1.041,1.321,1.321,0,0,0,1.008.351,3.827,3.827,0,0,0,1.459-.319Zm-.866-2.662c0-.757-.219-1.359-1.031-1.359-.735,0-1.084.657-1.129,1.359Z" transform="translate(-20973.98 -3179.524)" fill="#fff"/>
      <path id="Path_815" data-name="Path 815" d="M405.155,439.473v-3.322c0-.645-.3-.951-.854-.951a2.814,2.814,0,0,0-1.228.317v3.956h-1v-5.062h.735l.085.46a2.568,2.568,0,0,1,1.536-.57,1.581,1.581,0,0,1,1.721,1.763v3.408Z" transform="translate(-20974.713 -3179.524)" fill="#fff"/>
      <path id="Path_816" data-name="Path 816" d="M410.873,439.068a2.757,2.757,0,0,1-1.218.306c-.821,0-1.293-.461-1.293-1.38v-2.949h-.756v-.734l.789-.045.077-1.489h.889v1.447h1.412v.821h-1.412v2.794c0,.373.065.635.448.635a1.746,1.746,0,0,0,.735-.185Z" transform="translate(-20975.389 -3179.337)" fill="#fff"/>
      <rect id="Rectangle_44" data-name="Rectangle 44" width="1.461" height="9.796" transform="translate(-20720.063 -2789.709)" fill="#fff"/>
      <path id="Path_827" data-name="Path 827" d="M237.944,392.015a15.214,15.214,0,0,0,2.313.213,3.08,3.08,0,0,0,2.082-.548,1.323,1.323,0,0,0,.412-1c0-.958-.593-1.279-2.283-1.78s-2.767-1.187-2.767-2.845a2.383,2.383,0,0,1,.943-1.947,3.854,3.854,0,0,1,2.419-.67,14.492,14.492,0,0,1,2.706.3l-.18,1.217a13.655,13.655,0,0,0-2.267-.213,3.089,3.089,0,0,0-1.69.349,1.069,1.069,0,0,0-.456.913c0,1,.777,1.294,2.39,1.78,1.58.489,2.661,1.158,2.661,2.877a2.639,2.639,0,0,1-.988,2.159,4.286,4.286,0,0,1-2.693.716,15.894,15.894,0,0,1-2.784-.29Z" transform="translate(-20954.584 -3173.295)" fill="#fff"/>
      <path id="Path_828" data-name="Path 828" d="M246.388,388.485c0-3.317,1.262-5.05,4.228-5.05s4.231,1.733,4.231,5.05-1.264,5.05-4.231,5.05-4.228-1.735-4.228-5.05m6.968,0c0-2.587-.776-3.742-2.74-3.742s-2.737,1.155-2.737,3.742.775,3.742,2.737,3.742,2.74-1.155,2.74-3.742" transform="translate(-20955.646 -3173.295)" fill="#fff"/>
      <path id="Path_829" data-name="Path 829" d="M238.859,406.723a4.119,4.119,0,0,1-2.205.609,3.2,3.2,0,0,1-2.389-.852,3.346,3.346,0,0,1-.761-2.419,3.277,3.277,0,0,1,.778-2.375,3.623,3.623,0,0,1,2.677-.913,3.791,3.791,0,0,1,2.433.716,3.124,3.124,0,0,1,.929,2.48V407.6a3.144,3.144,0,0,1-.943,2.5,3.971,3.971,0,0,1-2.662.777,14.066,14.066,0,0,1-2.706-.3l.183-1.217a12.235,12.235,0,0,0,2.281.244,2.7,2.7,0,0,0,1.917-.518,2.172,2.172,0,0,0,.47-1.583Zm0-2.678c0-1.339-.5-1.993-1.931-1.993s-1.931.654-1.931,1.993a2.163,2.163,0,0,0,.44,1.536,1.945,1.945,0,0,0,1.492.473,5.836,5.836,0,0,0,1.931-.351Z" transform="translate(-20954.07 -3175.418)" fill="#fff"/>
      <path id="Path_830" data-name="Path 830" d="M242.956,405.825c0-3.286.684-5.05,3.543-5.05s3.53,1.765,3.53,5.05-.685,5.05-3.53,5.05-3.543-1.78-3.543-5.05m5.613,0c0-2.327-.139-3.773-2.07-3.773-1.962,0-2.083,1.445-2.083,3.773s.121,3.788,2.083,3.788c1.931,0,2.07-1.475,2.07-3.788" transform="translate(-20955.227 -3175.419)" fill="#fff"/>
      <path id="Path_831" data-name="Path 831" d="M252.682,405.825c0-3.286.684-5.05,3.544-5.05,2.845,0,3.53,1.765,3.53,5.05s-.685,5.05-3.53,5.05c-2.861,0-3.544-1.78-3.544-5.05m5.614,0c0-2.327-.138-3.773-2.069-3.773-1.962,0-2.084,1.445-2.084,3.773s.122,3.788,2.084,3.788c1.931,0,2.069-1.475,2.069-3.788" transform="translate(-20956.418 -3175.419)" fill="#fff"/>
      <path id="Path_832" data-name="Path 832" d="M263.78,410.745v-8.321l-2.039.775-.44-.988,2.615-1.262h1.325v9.8Z" transform="translate(-20957.473 -3175.44)" fill="#fff"/>
      <path id="Path_833" data-name="Path 833" d="M238.148,426.877c-1.479-.867-2.674-1.186-3.593-1.831-.735-.515-1.3-1.315-1.3-3.244,0-2.388.909-3.638,3.057-3.638s3.046,1.25,3.046,3.638a4,4,0,0,1-.755,2.641,2.815,2.815,0,0,1-2.061.822v.022a8.357,8.357,0,0,1,2.061.657Zm.133-5.075c0-1.863-.558-2.695-1.973-2.695s-1.984.832-1.984,2.695.56,2.7,1.984,2.7,1.973-.834,1.973-2.7" transform="translate(-20954.039 -3177.548)" fill="#fff"/>
      <path id="Path_834" data-name="Path 834" d="M244.774,425.625l-.077-.428a2.591,2.591,0,0,1-1.534.548,1.577,1.577,0,0,1-1.709-1.764v-3.419h1v3.32c0,.692.3.954.887.954a2.762,2.762,0,0,0,1.172-.284v-3.989h1v5.063Z" transform="translate(-20955.043 -3177.842)" fill="#fff"/>
      <path id="Path_835" data-name="Path 835" d="M250.661,425.609l-.11-.426a2.233,2.233,0,0,1-1.479.536,1.555,1.555,0,0,1-1.678-1.589,1.494,1.494,0,0,1,.537-1.183,2.145,2.145,0,0,1,1.358-.383c.351,0,.757.02,1.108.043v-.426a.84.84,0,0,0-.21-.637,1.3,1.3,0,0,0-.9-.219,7,7,0,0,0-1.424.167l-.152-.834a6.259,6.259,0,0,1,1.666-.219,2.3,2.3,0,0,1,1.522.394,1.573,1.573,0,0,1,.493,1.294v3.484Zm-.263-2.268c-.252-.02-.593-.032-.9-.032-.735,0-1.083.263-1.083.821a.771.771,0,0,0,.864.8,1.884,1.884,0,0,0,1.118-.371Z" transform="translate(-20955.771 -3177.826)" fill="#fff"/>
      <rect id="Rectangle_45" data-name="Rectangle 45" width="0.996" height="7.057" transform="translate(-20702.963 -2759.275)" fill="#fff"/>
      <path id="Path_836" data-name="Path 836" d="M256.843,418.251a.56.56,0,0,1,.56.56.552.552,0,0,1-.56.548.543.543,0,0,1-.548-.548.552.552,0,0,1,.548-.56m-.493,2.026h1v5.063h-1Z" transform="translate(-20956.861 -3177.559)" fill="#fff"/>
      <path id="Path_837" data-name="Path 837" d="M261.747,425.2a2.756,2.756,0,0,1-1.218.306c-.821,0-1.293-.461-1.293-1.379v-2.949h-.756v-.734l.79-.044.076-1.489h.889v1.446h1.412v.821h-1.412v2.794c0,.374.065.637.448.637a1.751,1.751,0,0,0,.735-.186Z" transform="translate(-20957.129 -3177.64)" fill="#fff"/>
      <path id="Path_838" data-name="Path 838" d="M264.114,427.619c.294-.777.537-1.469.712-1.995h-.537c-.513-1.4-1.042-3.244-1.5-5.062h1.043c.339,1.489.713,2.913,1.15,4.273h.076c.405-1.228.834-2.816,1.162-4.273h1.019a59.115,59.115,0,0,1-2.146,7.056Z" transform="translate(-20957.656 -3177.842)" fill="#fff"/>
      <path id="Path_839" data-name="Path 839" d="M239.473,439.218c-.054-1.885-.142-3.824-.229-5.687h-.055l-1.6,4.492h-1.13l-1.6-4.492H234.8c-.088,1.863-.175,3.8-.23,5.687h-1.063c.077-2.346.2-4.7.328-7.057h1.534L237,436.84h.055l1.621-4.679h1.534c.132,2.356.252,4.712.329,7.057Z" transform="translate(-20954.07 -3179.262)" fill="#fff"/>
      <path id="Path_840" data-name="Path 840" d="M246.054,439.481l-.11-.426a2.234,2.234,0,0,1-1.481.535A1.553,1.553,0,0,1,242.788,438a1.49,1.49,0,0,1,.535-1.183,2.154,2.154,0,0,1,1.359-.383c.351,0,.757.02,1.108.043v-.427a.847.847,0,0,0-.21-.637,1.3,1.3,0,0,0-.9-.219,7.141,7.141,0,0,0-1.424.165l-.152-.832a6.269,6.269,0,0,1,1.666-.219,2.307,2.307,0,0,1,1.522.393,1.576,1.576,0,0,1,.493,1.3v3.484Zm-.263-2.268c-.252-.023-.593-.032-.9-.032-.734,0-1.086.263-1.086.821a.774.774,0,0,0,.867.8,1.885,1.885,0,0,0,1.118-.371Z" transform="translate(-20955.207 -3179.525)" fill="#fff"/>
      <path id="Path_841" data-name="Path 841" d="M252.035,439.481V436.16c0-.645-.3-.954-.856-.954a2.826,2.826,0,0,0-1.227.319v3.957h-1v-5.063h.735l.088.459a2.567,2.567,0,0,1,1.534-.569,1.581,1.581,0,0,1,1.72,1.764v3.408Z" transform="translate(-20955.961 -3179.525)" fill="#fff"/>
      <path id="Path_842" data-name="Path 842" d="M258.089,439.481l-.109-.426a2.236,2.236,0,0,1-1.481.535A1.554,1.554,0,0,1,254.823,438a1.487,1.487,0,0,1,.538-1.183,2.142,2.142,0,0,1,1.357-.383c.351,0,.757.02,1.108.043v-.427a.85.85,0,0,0-.209-.637,1.307,1.307,0,0,0-.9-.219,7.149,7.149,0,0,0-1.424.165l-.152-.832a6.274,6.274,0,0,1,1.666-.219,2.305,2.305,0,0,1,1.522.393,1.576,1.576,0,0,1,.493,1.3v3.484Zm-.263-2.268c-.252-.023-.592-.032-.9-.032-.735,0-1.086.263-1.086.821a.774.774,0,0,0,.866.8,1.885,1.885,0,0,0,1.118-.371Z" transform="translate(-20956.68 -3179.525)" fill="#fff"/>
      <path id="Path_843" data-name="Path 843" d="M263.882,439.2a2.161,2.161,0,0,1-1.2.393c-1.437,0-1.962-.931-1.962-2.6,0-1.9.592-2.684,1.995-2.684a7.429,7.429,0,0,1,2.171.351v5.281a1.584,1.584,0,0,1-.461,1.206,2.3,2.3,0,0,1-1.556.438,9.206,9.206,0,0,1-1.634-.175l.133-.854a9.568,9.568,0,0,0,1.359.13,1.447,1.447,0,0,0,.964-.229.89.89,0,0,0,.2-.625Zm0-3.9a6.314,6.314,0,0,0-1.073-.1c-.866,0-1.086.592-1.086,1.808,0,1.141.229,1.766,1.073,1.766a2.455,2.455,0,0,0,1.086-.241Z" transform="translate(-20957.402 -3179.525)" fill="#fff"/>
      <path id="Path_844" data-name="Path 844" d="M270.678,439.185a4.345,4.345,0,0,1-1.753.405c-1.491,0-2.29-.931-2.29-2.607,0-1.392.634-2.674,2.179-2.674,1.229,0,1.942.877,1.942,2.236a4.182,4.182,0,0,1-.077.767h-3.035a1.645,1.645,0,0,0,.339,1.041,1.32,1.32,0,0,0,1.008.351,3.851,3.851,0,0,0,1.457-.319Zm-.866-2.662c0-.756-.219-1.359-1.029-1.359-.734,0-1.086.657-1.13,1.359Z" transform="translate(-20958.127 -3179.525)" fill="#fff"/>
      <path id="Path_845" data-name="Path 845" d="M278.563,439.481v-3.354c0-.635-.306-.921-.866-.921a2.424,2.424,0,0,0-1.173.351,3.881,3.881,0,0,1,.055.625v3.3h-1v-3.354c0-.635-.3-.921-.854-.921a2.343,2.343,0,0,0-1.13.309v3.966h-1v-5.063h.734l.087.459a2.526,2.526,0,0,1,1.524-.569,1.463,1.463,0,0,1,1.315.646,2.516,2.516,0,0,1,1.579-.646c1.128,0,1.718.623,1.718,1.863v3.309Z" transform="translate(-20958.857 -3179.525)" fill="#fff"/>
      <path id="Path_846" data-name="Path 846" d="M285.71,439.185a4.35,4.35,0,0,1-1.755.405c-1.49,0-2.29-.931-2.29-2.607,0-1.392.635-2.674,2.18-2.674,1.229,0,1.941.877,1.941,2.236a4.183,4.183,0,0,1-.076.767h-3.035a1.645,1.645,0,0,0,.339,1.041,1.32,1.32,0,0,0,1.008.351,3.851,3.851,0,0,0,1.457-.319Zm-.867-2.662c0-.756-.219-1.359-1.03-1.359-.734,0-1.084.657-1.129,1.359Z" transform="translate(-20959.967 -3179.525)" fill="#fff"/>
      <path id="Path_847" data-name="Path 847" d="M290.711,439.481V436.16c0-.645-.3-.954-.855-.954a2.825,2.825,0,0,0-1.227.319v3.957h-1v-5.063h.735l.085.459a2.581,2.581,0,0,1,1.537-.569,1.581,1.581,0,0,1,1.72,1.764v3.408Z" transform="translate(-20960.697 -3179.525)" fill="#fff"/>
      <path id="Path_848" data-name="Path 848" d="M296.429,439.075a2.753,2.753,0,0,1-1.217.306c-.821,0-1.293-.46-1.293-1.379v-2.948h-.756v-.734l.789-.045.077-1.489h.889v1.446h1.412v.822h-1.412v2.793c0,.374.065.635.448.635a1.724,1.724,0,0,0,.734-.187Z" transform="translate(-20961.375 -3179.338)" fill="#fff"/>
    </g>
  </g>
</svg>
