<svg xmlns="http://www.w3.org/2000/svg" width="328.188" height="98.312" viewBox="0 0 328.188 98.312">
  <g id="Group_450" data-name="Group 450" transform="translate(-129.31 -368.462)">
    <rect id="Rectangle_42" data-name="Rectangle 42" width="1.665" height="11.163" transform="translate(348.518 383.603)" fill="#020203"/>
    <path id="Path_786" data-name="Path 786" d="M408.355,368.485v0l-111.724-.019c-.888,0-1.764.005-2.627.016v4.262a44.8,44.8,0,0,1,0,89.6v4.377c1.082.019,2.227.028,3.471.028l110.036.019c.282,0,.562.006.844.006a49.141,49.141,0,1,0,0-98.281" fill="#020203"/>
    <path id="Path_787" data-name="Path 787" d="M408.355,462.4c-.259,0-.523,0-.781-.007h-.063l-93.585-.016a49.273,49.273,0,0,0-.13-89.542l90.191.014v.005h4.368a44.773,44.773,0,1,1,0,89.546" fill="#fff"/>
    <path id="Path_788" data-name="Path 788" d="M352.422,393.2a17.182,17.182,0,0,0,2.635.243,3.512,3.512,0,0,0,2.373-.624,1.508,1.508,0,0,0,.469-1.145c0-1.091-.675-1.456-2.6-2.027-1.924-.555-3.154-1.353-3.154-3.242a2.719,2.719,0,0,1,1.075-2.22,4.4,4.4,0,0,1,2.756-.763,16.617,16.617,0,0,1,3.085.347l-.206,1.387a15.568,15.568,0,0,0-2.583-.242,3.522,3.522,0,0,0-1.926.4,1.219,1.219,0,0,0-.52,1.041c0,1.144.886,1.475,2.724,2.028,1.8.557,3.031,1.32,3.031,3.278a3.007,3.007,0,0,1-1.126,2.46,4.873,4.873,0,0,1-3.068.817,18.211,18.211,0,0,1-3.173-.331Z" fill="#020203"/>
    <path id="Path_789" data-name="Path 789" d="M360.831,389.182c0-3.78,1.438-5.755,4.818-5.755s4.821,1.975,4.821,5.755-1.44,5.755-4.821,5.755-4.818-1.976-4.818-5.755m7.94,0c0-2.948-.883-4.263-3.122-4.263s-3.119,1.315-3.119,4.263.884,4.264,3.119,4.264,3.122-1.316,3.122-4.264" fill="#020203"/>
    <path id="Path_790" data-name="Path 790" d="M349.889,412.1v-9.482l-2.324.883-.5-1.126,2.98-1.438h1.51V412.1Z" fill="#020203"/>
    <path id="Path_791" data-name="Path 791" d="M358.749,412.1v-2.115h-5.235v-1.3c1.249-2.34,2.826-5.061,4.421-7.748h1.8c-1.614,2.634-3.106,5.182-4.44,7.593h3.45L358.9,406h1.51v2.531h1.873v1.455h-1.873V412.1Z" fill="#020203"/>
    <path id="Path_792" data-name="Path 792" d="M363.327,406.522c0-3.743.781-5.755,4.041-5.755,3.24,0,4.021,2.012,4.021,5.755,0,3.728-.781,5.755-4.021,5.755-3.26,0-4.041-2.027-4.041-5.755m6.4,0c0-2.652-.157-4.3-2.356-4.3-2.238,0-2.374,1.646-2.374,4.3,0,2.636.136,4.317,2.374,4.317,2.2,0,2.356-1.681,2.356-4.317" fill="#020203"/>
    <path id="Path_793" data-name="Path 793" d="M373.057,406.522c0-3.743.779-5.755,4.039-5.755,3.242,0,4.021,2.012,4.021,5.755,0,3.728-.779,5.755-4.021,5.755-3.26,0-4.039-2.027-4.039-5.755m6.395,0c0-2.652-.155-4.3-2.356-4.3-2.238,0-2.377,1.646-2.377,4.3,0,2.636.139,4.317,2.377,4.317,2.2,0,2.356-1.681,2.356-4.317" fill="#020203"/>
    <path id="Path_794" data-name="Path 794" d="M384.5,412.1v-9.482l-2.324.883-.5-1.126,2.98-1.438h1.51V412.1Z" fill="#020203"/>
    <path id="Path_795" data-name="Path 795" d="M348.118,426.324v-8.042H352.9v1.061h-3.586v2.31h2.936v1.05h-2.936v2.56H352.9v1.061Z" fill="#020203"/>
    <path id="Path_796" data-name="Path 796" d="M357.707,426.324v-3.785c0-.736-.337-1.087-.973-1.087a3.222,3.222,0,0,0-1.4.363v4.509H354.2v-5.769h.837l.1.522a2.929,2.929,0,0,1,1.748-.647,1.8,1.8,0,0,1,1.961,2.009v3.885Z" fill="#020203"/>
    <path id="Path_797" data-name="Path 797" d="M361.589,426.324a39.258,39.258,0,0,1-1.774-5.769h1.175a38.575,38.575,0,0,0,1.359,4.869h.1a38.729,38.729,0,0,0,1.36-4.869h1.174a39.128,39.128,0,0,1-1.773,5.769Z" fill="#020203"/>
    <path id="Path_798" data-name="Path 798" d="M366.62,418.244a.638.638,0,0,1,.636.636.627.627,0,0,1-.636.624.617.617,0,0,1-.624-.624.628.628,0,0,1,.624-.636m-.562,2.31H367.2v5.768h-1.138Z" fill="#020203"/>
    <path id="Path_799" data-name="Path 799" d="M368.854,426.324v-5.769h.848l.151.712h.051a1.836,1.836,0,0,1,1.711-.826,3.849,3.849,0,0,1,.5.026l-.076,1.036a4.186,4.186,0,0,0-.687-.051,2.071,2.071,0,0,0-1.362.439v4.433Z" fill="#020203"/>
    <path id="Path_800" data-name="Path 800" d="M375.272,426.449a2.492,2.492,0,0,1-1.825-.638,4.082,4.082,0,0,1,0-4.744,2.924,2.924,0,0,1,3.649,0,4.077,4.077,0,0,1,0,4.744,2.49,2.49,0,0,1-1.824.638m1.436-3.01a2.472,2.472,0,0,0-.412-1.612,1.512,1.512,0,0,0-2.049,0,2.472,2.472,0,0,0-.411,1.612,2.429,2.429,0,0,0,.411,1.611,1.293,1.293,0,0,0,1.025.4,1.346,1.346,0,0,0,1.024-.4,2.429,2.429,0,0,0,.412-1.611" fill="#020203"/>
    <path id="Path_801" data-name="Path 801" d="M382.651,426.324v-3.785c0-.736-.338-1.087-.973-1.087a3.222,3.222,0,0,0-1.4.363v4.509h-1.136v-5.769h.837l.1.522a2.934,2.934,0,0,1,1.748-.647,1.8,1.8,0,0,1,1.96,2.009v3.885Z" fill="#020203"/>
    <path id="Path_802" data-name="Path 802" d="M392.14,426.324V422.5c0-.724-.349-1.05-.987-1.05a2.761,2.761,0,0,0-1.337.4,4.3,4.3,0,0,1,.063.712v3.76h-1.135V422.5c0-.724-.338-1.05-.974-1.05a2.675,2.675,0,0,0-1.288.351v4.521h-1.135v-5.769h.837l.1.522a2.879,2.879,0,0,1,1.737-.647,1.664,1.664,0,0,1,1.5.735,2.869,2.869,0,0,1,1.8-.735c1.288,0,1.96.71,1.96,2.122v3.772Z" fill="#020203"/>
    <path id="Path_803" data-name="Path 803" d="M399.017,425.986a4.939,4.939,0,0,1-2,.462c-1.7,0-2.61-1.061-2.61-2.971,0-1.586.726-3.048,2.486-3.048,1.4,0,2.21,1,2.21,2.548a4.5,4.5,0,0,1-.088.874h-3.459a1.892,1.892,0,0,0,.389,1.187,1.5,1.5,0,0,0,1.146.4,4.411,4.411,0,0,0,1.663-.363Zm-.985-3.034c0-.862-.252-1.549-1.174-1.549-.838,0-1.238.749-1.286,1.549Z" fill="#020203"/>
    <path id="Path_804" data-name="Path 804" d="M403.887,426.324v-3.785c0-.736-.338-1.087-.974-1.087a3.22,3.22,0,0,0-1.4.363v4.509h-1.138v-5.769h.839l.1.522a2.938,2.938,0,0,1,1.751-.647,1.8,1.8,0,0,1,1.96,2.009v3.885Z" fill="#020203"/>
    <path id="Path_805" data-name="Path 805" d="M409.629,426.074a3.121,3.121,0,0,1-1.385.349,1.368,1.368,0,0,1-1.475-1.572v-3.36h-.86v-.837l.9-.051.086-1.7h1.012v1.649h1.61v.936h-1.61v3.184c0,.425.074.724.511.724a1.975,1.975,0,0,0,.837-.211Z" fill="#020203"/>
    <path id="Path_806" data-name="Path 806" d="M414.125,426.323l-.125-.485a2.549,2.549,0,0,1-1.687.61,1.77,1.77,0,0,1-1.91-1.81,1.7,1.7,0,0,1,.612-1.348,2.453,2.453,0,0,1,1.55-.437c.4,0,.86.023,1.26.048v-.485a.968.968,0,0,0-.238-.726,1.483,1.483,0,0,0-1.022-.25,8.147,8.147,0,0,0-1.626.187l-.173-.948a7.187,7.187,0,0,1,1.9-.249,2.624,2.624,0,0,1,1.734.448,1.8,1.8,0,0,1,.564,1.475v3.97Zm-.3-2.585c-.287-.025-.675-.037-1.025-.037-.837,0-1.237.3-1.237.937a.881.881,0,0,0,.988.911,2.148,2.148,0,0,0,1.274-.423Z" fill="#020203"/>
    <rect id="Rectangle_43" data-name="Rectangle 43" width="1.138" height="8.042" transform="translate(416.57 418.281)" fill="#020203"/>
    <path id="Path_807" data-name="Path 807" d="M354.749,440.2c-.063-2.148-.162-4.358-.262-6.481h-.062l-1.822,5.12h-1.288l-1.824-5.12h-.063c-.1,2.123-.2,4.333-.261,6.481h-1.212c.088-2.672.225-5.357.375-8.041h1.748l1.85,5.332h.062l1.847-5.332h1.749c.15,2.684.286,5.369.374,8.041Z" fill="#020203"/>
    <path id="Path_808" data-name="Path 808" d="M360.953,440.2l-.124-.488a2.535,2.535,0,0,1-1.688.613,1.771,1.771,0,0,1-1.91-1.81,1.7,1.7,0,0,1,.61-1.348,2.45,2.45,0,0,1,1.549-.437c.4,0,.863.023,1.263.048v-.485a.968.968,0,0,0-.238-.726,1.487,1.487,0,0,0-1.025-.25,8.154,8.154,0,0,0-1.623.187l-.173-.948a7.19,7.19,0,0,1,1.9-.25,2.627,2.627,0,0,1,1.734.449,1.8,1.8,0,0,1,.562,1.475v3.97Zm-.3-2.585c-.287-.025-.675-.037-1.024-.037-.837,0-1.237.3-1.237.937a.881.881,0,0,0,.987.911,2.142,2.142,0,0,0,1.274-.424Z" fill="#020203"/>
    <path id="Path_809" data-name="Path 809" d="M366.908,440.2V436.41c0-.735-.337-1.084-.975-1.084a3.206,3.206,0,0,0-1.4.361V440.2H363.4v-5.768h.837l.1.524a2.915,2.915,0,0,1,1.748-.649,1.8,1.8,0,0,1,1.961,2.009V440.2Z" fill="#020203"/>
    <path id="Path_810" data-name="Path 810" d="M372.989,440.2l-.125-.488a2.533,2.533,0,0,1-1.688.613,1.771,1.771,0,0,1-1.91-1.81,1.693,1.693,0,0,1,.611-1.348,2.446,2.446,0,0,1,1.549-.437c.4,0,.862.023,1.262.048v-.485a.968.968,0,0,0-.238-.726,1.488,1.488,0,0,0-1.024-.25,8.135,8.135,0,0,0-1.623.187l-.176-.948a7.223,7.223,0,0,1,1.9-.25,2.632,2.632,0,0,1,1.735.449,1.8,1.8,0,0,1,.561,1.475v3.97Zm-.3-2.585c-.289-.025-.675-.037-1.024-.037-.837,0-1.237.3-1.237.937a.881.881,0,0,0,.987.911,2.137,2.137,0,0,0,1.274-.424Z" fill="#020203"/>
    <path id="Path_811" data-name="Path 811" d="M378.768,439.871a2.459,2.459,0,0,1-1.374.449c-1.637,0-2.236-1.061-2.236-2.96,0-2.159.675-3.059,2.273-3.059a8.495,8.495,0,0,1,2.474.4v6.019a1.8,1.8,0,0,1-.525,1.373,2.614,2.614,0,0,1-1.773.5,10.564,10.564,0,0,1-1.861-.2l.15-.973a10.9,10.9,0,0,0,1.549.148,1.631,1.631,0,0,0,1.1-.262,1.007,1.007,0,0,0,.225-.712Zm0-4.446a7.33,7.33,0,0,0-1.224-.113c-.987,0-1.237.675-1.237,2.062,0,1.3.262,2.01,1.224,2.01a2.791,2.791,0,0,0,1.237-.276Z" fill="#020203"/>
    <path id="Path_812" data-name="Path 812" d="M385.685,439.857a4.922,4.922,0,0,1-2,.463c-1.7,0-2.61-1.061-2.61-2.971,0-1.586.724-3.048,2.483-3.048,1.4,0,2.213,1,2.213,2.548a4.669,4.669,0,0,1-.088.874h-3.459a1.874,1.874,0,0,0,.386,1.186,1.506,1.506,0,0,0,1.149.4,4.338,4.338,0,0,0,1.661-.363Zm-.987-3.033c0-.863-.25-1.549-1.172-1.549-.837,0-1.237.749-1.288,1.549Z" fill="#020203"/>
    <path id="Path_813" data-name="Path 813" d="M393.838,440.2v-3.822c0-.723-.349-1.047-.987-1.047a2.77,2.77,0,0,0-1.337.4,4.3,4.3,0,0,1,.063.712V440.2h-1.136v-3.822c0-.723-.337-1.047-.973-1.047a2.673,2.673,0,0,0-1.288.349v4.52h-1.135v-5.768h.837l.1.524a2.868,2.868,0,0,1,1.737-.649,1.66,1.66,0,0,1,1.5.735,2.877,2.877,0,0,1,1.8-.735c1.285,0,1.958.712,1.958,2.122V440.2Z" fill="#020203"/>
    <path id="Path_814" data-name="Path 814" d="M400.717,439.857a4.94,4.94,0,0,1-2,.463c-1.7,0-2.608-1.061-2.608-2.971,0-1.586.723-3.048,2.483-3.048,1.4,0,2.213,1,2.213,2.548a4.755,4.755,0,0,1-.088.874h-3.459a1.874,1.874,0,0,0,.386,1.186,1.5,1.5,0,0,0,1.149.4,4.361,4.361,0,0,0,1.663-.363Zm-.987-3.033c0-.863-.25-1.549-1.175-1.549-.837,0-1.235.749-1.286,1.549Z" fill="#020203"/>
    <path id="Path_815" data-name="Path 815" d="M405.584,440.2V436.41c0-.735-.337-1.084-.973-1.084a3.206,3.206,0,0,0-1.4.361V440.2h-1.135v-5.768h.837l.1.524a2.926,2.926,0,0,1,1.75-.649,1.8,1.8,0,0,1,1.961,2.009V440.2Z" fill="#020203"/>
    <path id="Path_816" data-name="Path 816" d="M411.329,439.946a3.141,3.141,0,0,1-1.388.349c-.936,0-1.473-.525-1.473-1.572v-3.36h-.862v-.837l.9-.051.088-1.7h1.013v1.649h1.609v.936h-1.609v3.184c0,.425.074.724.511.724a1.989,1.989,0,0,0,.837-.211Z" fill="#020203"/>
    <path id="Path_817" data-name="Path 817" d="M293.217,368.493v-.005l-111.03-.018a73.178,73.178,0,0,0-13.351.887,49.239,49.239,0,0,0-4.668,95.364c.12.037.245.067.366.1.443.129.883.263,1.331.379,4.13,1.126,8.565,1.547,17.168,1.547l109.34.016c.283.005.562.007.844.007a49.14,49.14,0,1,0,0-98.281" fill="#020203"/>
    <path id="Path_818" data-name="Path 818" d="M293.217,462.406c-.259,0-.522,0-.781-.007h-.063l-92.891-.016a49.273,49.273,0,0,0-.127-89.541l89.5.014v0h4.367a44.773,44.773,0,1,1,0,89.546" fill="#fff"/>
    <path id="Path_819" data-name="Path 819" d="M223.6,417.545a44.819,44.819,0,1,1-44.819-44.819A44.818,44.818,0,0,1,223.6,417.545" fill="#fff"/>
    <path id="Path_820" data-name="Path 820" d="M192.547,395.408a1.6,1.6,0,1,0-1.6-1.6,1.6,1.6,0,0,0,1.6,1.6" fill="#020203"/>
    <path id="Path_821" data-name="Path 821" d="M186.72,384.224v8.236c0,1.877.9,2.839,2.885,2.839a2.744,2.744,0,0,0,.481-.044v-1.991c-.7,0-.92-.217-.92-.825v-8.215Z" fill="#020203"/>
    <path id="Path_822" data-name="Path 822" d="M187.942,382.584a1.595,1.595,0,1,0-1.591-1.593,1.6,1.6,0,0,0,1.591,1.593" fill="#020203"/>
    <path id="Path_823" data-name="Path 823" d="M181.509,390.623c1.463.132,1.815.546,1.815,1.353,0,.962-.853,1.357-2.6,1.357a9.518,9.518,0,0,1-3.256-.613v2.1a10.265,10.265,0,0,0,3.605.59c3.5,0,4.654-1.639,4.654-3.517,0-2.032-.855-3.015-4.129-3.3-1.422-.13-1.813-.458-1.813-1.223,0-.983.807-1.355,2.1-1.355a9.133,9.133,0,0,1,3.341.612v-2.118a8.328,8.328,0,0,0-3.385-.545c-3.214,0-4.435,1.593-4.435,3.473s.807,2.9,4.107,3.188" fill="#020203"/>
    <path id="Path_824" data-name="Path 824" d="M178.9,457.406s24.334-41.169,24.509-41.569H154.288c.171.424,24.608,41.569,24.608,41.569" fill="#020203"/>
    <path id="Path_825" data-name="Path 825" d="M190.341,398.829A13.514,13.514,0,0,0,179,404.866a13.5,13.5,0,0,0-11.339-6.037,13.775,13.775,0,0,0-13.884,12.99H204a13.65,13.65,0,0,0-13.658-12.99" fill="#020203"/>
    <path id="Path_826" data-name="Path 826" d="M168.781,394.271a5.756,5.756,0,0,0,3.54,1.136c3.187,0,4.368-2.141,4.368-5.723,0-3.561-1.181-5.723-4.368-5.723a5.561,5.561,0,0,0-2.929.851v-6.051h-2.446v16.384h1.442Zm.611-7.6a4.675,4.675,0,0,1,2.358-.634c2.141,0,2.47,1.637,2.47,3.649,0,2.032-.329,3.649-2.47,3.649a4.655,4.655,0,0,1-2.358-.634Z" fill="#020203"/>
    <rect id="Rectangle_44" data-name="Rectangle 44" width="1.665" height="11.163" transform="translate(234.077 383.607)" fill="#020203"/>
    <path id="Path_827" data-name="Path 827" d="M237.978,393.212a17.334,17.334,0,0,0,2.636.243,3.509,3.509,0,0,0,2.372-.625,1.508,1.508,0,0,0,.47-1.144c0-1.092-.676-1.457-2.6-2.028-1.923-.555-3.153-1.353-3.153-3.242a2.716,2.716,0,0,1,1.075-2.219,4.392,4.392,0,0,1,2.756-.763,16.512,16.512,0,0,1,3.084.347l-.205,1.387a15.558,15.558,0,0,0-2.583-.243,3.52,3.52,0,0,0-1.926.4,1.218,1.218,0,0,0-.52,1.04c0,1.145.885,1.475,2.723,2.028,1.8.557,3.032,1.32,3.032,3.279a3.007,3.007,0,0,1-1.126,2.46,4.884,4.884,0,0,1-3.069.816,18.113,18.113,0,0,1-3.172-.331Z" fill="#020203"/>
    <path id="Path_828" data-name="Path 828" d="M246.388,389.19c0-3.78,1.438-5.755,4.818-5.755s4.821,1.975,4.821,5.755-1.44,5.755-4.821,5.755-4.818-1.977-4.818-5.755m7.94,0c0-2.948-.884-4.264-3.122-4.264s-3.119,1.316-3.119,4.264.883,4.264,3.119,4.264,3.122-1.316,3.122-4.264" fill="#020203"/>
    <path id="Path_829" data-name="Path 829" d="M239.606,407.553a4.694,4.694,0,0,1-2.513.694,3.651,3.651,0,0,1-2.722-.971,3.813,3.813,0,0,1-.867-2.756,3.734,3.734,0,0,1,.886-2.706,4.129,4.129,0,0,1,3.05-1.04,4.32,4.32,0,0,1,2.772.816,3.56,3.56,0,0,1,1.059,2.826v4.141A3.582,3.582,0,0,1,240.2,411.4a4.525,4.525,0,0,1-3.034.885,16.03,16.03,0,0,1-3.084-.347l.208-1.387a13.94,13.94,0,0,0,2.6.278,3.082,3.082,0,0,0,2.185-.59,2.475,2.475,0,0,0,.536-1.8Zm0-3.052c0-1.526-.571-2.271-2.2-2.271s-2.2.745-2.2,2.271a2.464,2.464,0,0,0,.5,1.75,2.216,2.216,0,0,0,1.7.539,6.65,6.65,0,0,0,2.2-.4Z" fill="#020203"/>
    <path id="Path_830" data-name="Path 830" d="M242.956,406.53c0-3.744.779-5.755,4.037-5.755,3.242,0,4.023,2.011,4.023,5.755,0,3.727-.781,5.755-4.023,5.755-3.258,0-4.037-2.028-4.037-5.755m6.4,0c0-2.652-.158-4.3-2.359-4.3-2.236,0-2.374,1.647-2.374,4.3,0,2.636.138,4.317,2.374,4.317,2.2,0,2.359-1.681,2.359-4.317" fill="#020203"/>
    <path id="Path_831" data-name="Path 831" d="M252.682,406.53c0-3.744.779-5.755,4.039-5.755,3.242,0,4.023,2.011,4.023,5.755,0,3.727-.781,5.755-4.023,5.755-3.26,0-4.039-2.028-4.039-5.755m6.4,0c0-2.652-.157-4.3-2.358-4.3-2.236,0-2.375,1.647-2.375,4.3,0,2.636.139,4.317,2.375,4.317,2.2,0,2.358-1.681,2.358-4.317" fill="#020203"/>
    <path id="Path_832" data-name="Path 832" d="M264.126,412.112V402.63l-2.324.883-.5-1.126,2.98-1.438h1.51v11.163Z" fill="#020203"/>
    <path id="Path_833" data-name="Path 833" d="M238.831,428.093c-1.685-.988-3.047-1.351-4.094-2.086-.837-.587-1.487-1.5-1.487-3.7,0-2.721,1.036-4.146,3.484-4.146s3.471,1.425,3.471,4.146a4.562,4.562,0,0,1-.86,3.01,3.208,3.208,0,0,1-2.349.937v.025a9.524,9.524,0,0,1,2.349.749Zm.151-5.783c0-2.123-.636-3.071-2.248-3.071s-2.261.948-2.261,3.071.638,3.073,2.261,3.073,2.248-.95,2.248-3.073" fill="#020203"/>
    <path id="Path_834" data-name="Path 834" d="M245.237,426.331l-.088-.488a2.953,2.953,0,0,1-1.748.625,1.8,1.8,0,0,1-1.947-2.01v-3.9h1.135v3.783c0,.789.338,1.087,1.011,1.087a3.147,3.147,0,0,0,1.336-.324v-4.546h1.138v5.769Z" fill="#020203"/>
    <path id="Path_835" data-name="Path 835" d="M251.117,426.331l-.125-.486a2.545,2.545,0,0,1-1.685.611,1.772,1.772,0,0,1-1.912-1.811,1.7,1.7,0,0,1,.612-1.348,2.444,2.444,0,0,1,1.547-.437c.4,0,.863.023,1.263.049v-.486a.958.958,0,0,0-.239-.726,1.485,1.485,0,0,0-1.024-.25,7.979,7.979,0,0,0-1.623.19l-.173-.95a7.132,7.132,0,0,1,1.9-.25,2.623,2.623,0,0,1,1.734.449,1.792,1.792,0,0,1,.562,1.475v3.97Zm-.3-2.585c-.287-.023-.676-.037-1.025-.037-.837,0-1.234.3-1.234.936a.879.879,0,0,0,.985.911,2.147,2.147,0,0,0,1.274-.423Z" fill="#020203"/>
    <rect id="Rectangle_45" data-name="Rectangle 45" width="1.135" height="8.042" transform="translate(253.562 418.288)" fill="#020203"/>
    <path id="Path_836" data-name="Path 836" d="M256.919,418.251a.638.638,0,0,1,.638.638.629.629,0,0,1-.638.624.618.618,0,0,1-.624-.624.629.629,0,0,1,.624-.638m-.562,2.309h1.138v5.769h-1.138Z" fill="#020203"/>
    <path id="Path_837" data-name="Path 837" d="M262.2,426.081a3.141,3.141,0,0,1-1.388.349c-.936,0-1.473-.525-1.473-1.572V421.5h-.862v-.837l.9-.05.087-1.7h1.013v1.648h1.609v.936H260.48v3.184c0,.426.074.726.511.726a2,2,0,0,0,.837-.212Z" fill="#020203"/>
    <path id="Path_838" data-name="Path 838" d="M264.3,428.6c.335-.885.612-1.674.811-2.273H264.5c-.585-1.6-1.187-3.7-1.711-5.768h1.188c.386,1.7.812,3.32,1.311,4.869h.086c.462-1.4.95-3.209,1.324-4.869h1.161a67.369,67.369,0,0,1-2.446,8.041Z" fill="#020203"/>
    <path id="Path_839" data-name="Path 839" d="M240.3,440.2c-.062-2.148-.162-4.358-.261-6.481h-.063l-1.822,5.119h-1.288l-1.824-5.119h-.062c-.1,2.123-.2,4.333-.262,6.481h-1.211c.088-2.673.224-5.357.374-8.042h1.748l1.85,5.332h.063l1.847-5.332h1.748c.15,2.685.287,5.369.375,8.042Z" fill="#020203"/>
    <path id="Path_840" data-name="Path 840" d="M246.51,440.2l-.125-.486a2.546,2.546,0,0,1-1.688.61,1.77,1.77,0,0,1-1.909-1.81,1.7,1.7,0,0,1,.61-1.348,2.454,2.454,0,0,1,1.549-.437c.4,0,.863.023,1.263.049V436.3a.965.965,0,0,0-.239-.726,1.482,1.482,0,0,0-1.024-.25,8.137,8.137,0,0,0-1.623.188l-.173-.948a7.143,7.143,0,0,1,1.9-.25,2.629,2.629,0,0,1,1.734.448,1.8,1.8,0,0,1,.562,1.476v3.97Zm-.3-2.585c-.287-.026-.676-.037-1.025-.037-.837,0-1.237.3-1.237.936a.882.882,0,0,0,.988.911,2.148,2.148,0,0,0,1.274-.423Z" fill="#020203"/>
    <path id="Path_841" data-name="Path 841" d="M252.465,440.2v-3.785c0-.735-.337-1.087-.976-1.087a3.22,3.22,0,0,0-1.4.363V440.2h-1.136v-5.769h.837l.1.523a2.925,2.925,0,0,1,1.748-.648,1.8,1.8,0,0,1,1.96,2.01V440.2Z" fill="#020203"/>
    <path id="Path_842" data-name="Path 842" d="M258.545,440.2l-.124-.486a2.548,2.548,0,0,1-1.688.61,1.771,1.771,0,0,1-1.91-1.81,1.694,1.694,0,0,1,.613-1.348,2.441,2.441,0,0,1,1.546-.437c.4,0,.863.023,1.263.049V436.3a.969.969,0,0,0-.238-.726,1.49,1.49,0,0,0-1.025-.25,8.147,8.147,0,0,0-1.623.188l-.173-.948a7.149,7.149,0,0,1,1.9-.25,2.627,2.627,0,0,1,1.734.448,1.8,1.8,0,0,1,.562,1.476v3.97Zm-.3-2.585c-.287-.026-.675-.037-1.024-.037-.837,0-1.237.3-1.237.936a.882.882,0,0,0,.987.911,2.148,2.148,0,0,0,1.274-.423Z" fill="#020203"/>
    <path id="Path_843" data-name="Path 843" d="M264.324,439.879a2.462,2.462,0,0,1-1.373.448c-1.637,0-2.236-1.061-2.236-2.959,0-2.16.675-3.059,2.273-3.059a8.466,8.466,0,0,1,2.474.4v6.018a1.805,1.805,0,0,1-.525,1.374,2.621,2.621,0,0,1-1.773.5,10.492,10.492,0,0,1-1.862-.2l.151-.973a10.9,10.9,0,0,0,1.549.148,1.648,1.648,0,0,0,1.1-.261,1.014,1.014,0,0,0,.224-.712Zm0-4.446a7.2,7.2,0,0,0-1.223-.114c-.987,0-1.237.675-1.237,2.06,0,1.3.261,2.012,1.223,2.012a2.8,2.8,0,0,0,1.237-.275Z" fill="#020203"/>
    <path id="Path_844" data-name="Path 844" d="M271.242,439.865a4.951,4.951,0,0,1-2,.462c-1.7,0-2.61-1.061-2.61-2.971,0-1.586.723-3.047,2.483-3.047,1.4,0,2.213,1,2.213,2.548a4.764,4.764,0,0,1-.088.874h-3.459a1.874,1.874,0,0,0,.386,1.186,1.5,1.5,0,0,0,1.149.4,4.389,4.389,0,0,0,1.66-.363Zm-.987-3.034c0-.862-.25-1.549-1.173-1.549-.837,0-1.237.749-1.288,1.549Z" fill="#020203"/>
    <path id="Path_845" data-name="Path 845" d="M279.395,440.2v-3.822c0-.724-.349-1.05-.987-1.05a2.762,2.762,0,0,0-1.337.4,4.424,4.424,0,0,1,.063.712v3.76H276v-3.822c0-.724-.337-1.05-.973-1.05a2.67,2.67,0,0,0-1.288.352v4.52H272.6v-5.769h.837l.1.523a2.879,2.879,0,0,1,1.737-.648,1.667,1.667,0,0,1,1.5.736,2.868,2.868,0,0,1,1.8-.736c1.285,0,1.958.71,1.958,2.123V440.2Z" fill="#020203"/>
    <path id="Path_846" data-name="Path 846" d="M286.274,439.865a4.957,4.957,0,0,1-2,.462c-1.7,0-2.609-1.061-2.609-2.971,0-1.586.724-3.047,2.484-3.047,1.4,0,2.212,1,2.212,2.548a4.769,4.769,0,0,1-.087.874h-3.459a1.875,1.875,0,0,0,.386,1.186,1.5,1.5,0,0,0,1.149.4,4.389,4.389,0,0,0,1.66-.363Zm-.988-3.034c0-.862-.249-1.549-1.174-1.549-.837,0-1.235.749-1.286,1.549Z" fill="#020203"/>
    <path id="Path_847" data-name="Path 847" d="M291.141,440.2v-3.785c0-.735-.338-1.087-.974-1.087a3.22,3.22,0,0,0-1.4.363V440.2h-1.136v-5.769h.837l.1.523a2.941,2.941,0,0,1,1.751-.648,1.8,1.8,0,0,1,1.96,2.01V440.2Z" fill="#020203"/>
    <path id="Path_848" data-name="Path 848" d="M296.885,439.953a3.137,3.137,0,0,1-1.387.349c-.936,0-1.473-.524-1.473-1.572v-3.359h-.862v-.837l.9-.051.088-1.7h1.013v1.648h1.609v.937h-1.609v3.183c0,.426.074.724.511.724a1.964,1.964,0,0,0,.837-.213Z" fill="#020203"/>
  </g>
</svg>
